<svg width="31" height="31" viewBox="0 0 31 31" fill="none" xmlns="http://www.w3.org/2000/svg">
<g clip-path="url(#clip0_313_26)">
<path d="M9.02516 0.083374H21.9752C26.9085 0.083374 30.9168 4.09171 30.9168 9.02504V21.975C30.9168 24.3465 29.9748 26.6209 28.2979 28.2978C26.621 29.9746 24.3466 30.9167 21.9752 30.9167H9.02516C4.09183 30.9167 0.0834961 26.9084 0.0834961 21.975V9.02504C0.0834961 6.65356 1.02556 4.37922 2.70245 2.70233C4.37934 1.02544 6.65369 0.083374 9.02516 0.083374ZM8.71683 3.16671C7.24488 3.16671 5.83321 3.75144 4.79239 4.79226C3.75156 5.83309 3.16683 7.24476 3.16683 8.71671V22.2834C3.16683 25.3513 5.64891 27.8334 8.71683 27.8334H22.2835C23.7554 27.8334 25.1671 27.2486 26.2079 26.2078C27.2488 25.167 27.8335 23.7553 27.8335 22.2834V8.71671C27.8335 5.64879 25.3514 3.16671 22.2835 3.16671H8.71683ZM23.5939 5.47921C24.105 5.47921 24.5952 5.68224 24.9566 6.04364C25.318 6.40504 25.521 6.8952 25.521 7.40629C25.521 7.91739 25.318 8.40755 24.9566 8.76894C24.5952 9.13034 24.105 9.33337 23.5939 9.33337C23.0828 9.33337 22.5927 9.13034 22.2313 8.76894C21.8699 8.40755 21.6668 7.91739 21.6668 7.40629C21.6668 6.8952 21.8699 6.40504 22.2313 6.04364C22.5927 5.68224 23.0828 5.47921 23.5939 5.47921ZM15.5002 7.79171C17.5445 7.79171 19.5052 8.60383 20.9508 10.0494C22.3964 11.495 23.2085 13.4557 23.2085 15.5C23.2085 17.5444 22.3964 19.5051 20.9508 20.9507C19.5052 22.3962 17.5445 23.2084 15.5002 23.2084C13.4558 23.2084 11.4951 22.3962 10.0495 20.9507C8.60396 19.5051 7.79183 17.5444 7.79183 15.5C7.79183 13.4557 8.60396 11.495 10.0495 10.0494C11.4951 8.60383 13.4558 7.79171 15.5002 7.79171ZM15.5002 10.875C14.2735 10.875 13.0971 11.3623 12.2298 12.2297C11.3624 13.097 10.8752 14.2734 10.8752 15.5C10.8752 16.7267 11.3624 17.9031 12.2298 18.7704C13.0971 19.6378 14.2735 20.125 15.5002 20.125C16.7268 20.125 17.9032 19.6378 18.7705 18.7704C19.6379 17.9031 20.1252 16.7267 20.1252 15.5C20.1252 14.2734 19.6379 13.097 18.7705 12.2297C17.9032 11.3623 16.7268 10.875 15.5002 10.875Z" fill="white"/>
</g>
<defs>
<clipPath id="clip0_313_26">
<rect width="31" height="31" fill="white"/>
</clipPath>
</defs>
</svg>
