<svg width="33" height="34" viewBox="0 0 33 34" fill="none" xmlns="http://www.w3.org/2000/svg">
<g clip-path="url(#clip0_313_20)">
<path fill-rule="evenodd" clip-rule="evenodd" d="M6.83529 0.75C4.89037 0.75 3.0251 1.52262 1.64984 2.89788C0.27457 4.27315 -0.498047 6.13841 -0.498047 8.08333V26.4167C-0.498047 28.3616 0.27457 30.2268 1.64984 31.6021C3.0251 32.9774 4.89037 33.75 6.83529 33.75H25.1686C27.1135 33.75 28.9788 32.9774 30.3541 31.6021C31.7293 30.2268 32.502 28.3616 32.502 26.4167V8.08333C32.502 6.13841 31.7293 4.27315 30.3541 2.89788C28.9788 1.52262 27.1135 0.75 25.1686 0.75H6.83529ZM25.7773 13.6842C26.0471 13.2796 26.1452 12.7844 26.05 12.3076C25.9548 11.8307 25.674 11.4112 25.2695 11.1413C24.8649 10.8715 24.3697 10.7734 23.8929 10.8686C23.416 10.9639 22.9965 11.2446 22.7266 11.6492C22.0776 12.5108 21.3975 13.3358 20.6018 14.0692C19.6796 14.9198 18.7465 15.5578 17.8371 15.9355L17.8225 12.4522C17.7699 12.0062 17.5555 11.595 17.22 11.2966C16.8844 10.9983 16.451 10.8334 16.002 10.8333C15.0083 10.8902 14.1686 11.6235 14.1686 12.6667V20.6838C10.5973 19.6938 8.66862 16.2288 8.66862 12.6667C8.66862 12.1804 8.47547 11.7141 8.13165 11.3703C7.78783 11.0265 7.32152 10.8333 6.83529 10.8333C6.34906 10.8333 5.88274 11.0265 5.53892 11.3703C5.19511 11.7141 5.00195 12.1804 5.00195 12.6667C5.00195 19.3253 9.60362 24.5833 16.002 24.5833C16.4882 24.5833 16.9545 24.3902 17.2983 24.0464C17.6421 23.7025 17.8353 23.2362 17.8353 22.75V19.8845C20.2773 20.0788 22.646 21.804 23.5296 23.5695C23.6326 23.7924 23.7793 23.9923 23.961 24.1575C24.1427 24.3226 24.3557 24.4495 24.5874 24.5308C24.8191 24.612 25.0648 24.6459 25.3098 24.6303C25.5548 24.6148 25.7942 24.5503 26.0139 24.4405C26.2335 24.3307 26.4288 24.1779 26.5882 23.9911C26.7476 23.8044 26.8679 23.5876 26.942 23.3535C27.016 23.1194 27.0423 22.8728 27.0192 22.6284C26.9961 22.3839 26.9242 22.1466 26.8076 21.9305C25.9313 20.176 24.296 18.5352 22.283 17.4645C22.5543 17.2427 22.8238 17.008 23.0896 16.7642C24.0997 15.843 25.0014 14.8097 25.7773 13.6842Z" fill="white"/>
</g>
<defs>
<clipPath id="clip0_313_20">
<rect width="33" height="34" fill="white"/>
</clipPath>
</defs>
</svg>
