<svg width="33" height="33" viewBox="0 0 33 33" fill="none" xmlns="http://www.w3.org/2000/svg">
<g clip-path="url(#clip0_313_28)">
<path d="M16.252 0.25C7.28195 0.25 0.00195312 7.53 0.00195312 16.5C0.00195312 25.47 7.28195 32.75 16.252 32.75C25.222 32.75 32.502 25.47 32.502 16.5C32.502 7.53 25.222 0.25 16.252 0.25ZM23.792 11.3C23.5482 13.8675 22.492 20.1075 21.9557 22.9837C21.7282 24.2025 21.2732 24.6088 20.8507 24.6575C19.9082 24.7388 19.1932 24.04 18.2832 23.4388C16.8532 22.4963 16.0407 21.9113 14.6595 21.0013C13.0507 19.945 14.0907 19.36 15.017 18.4175C15.2607 18.1738 19.4207 14.3875 19.502 14.0462C19.5132 13.9946 19.5117 13.9409 19.4976 13.8899C19.4834 13.839 19.457 13.7922 19.4207 13.7538C19.3232 13.6725 19.1932 13.705 19.0795 13.7212C18.9332 13.7537 16.6582 15.265 12.222 18.255C11.572 18.6937 10.987 18.9212 10.467 18.905C9.88195 18.8887 8.77695 18.58 7.9482 18.3037C6.92445 17.9787 6.1282 17.8 6.1932 17.2312C6.2257 16.9387 6.63195 16.6462 7.3957 16.3375C12.1407 14.2737 15.2932 12.9088 16.8695 12.2588C21.387 10.3738 22.3132 10.0487 22.9307 10.0487C23.0607 10.0487 23.3695 10.0812 23.5645 10.2437C23.727 10.3737 23.7757 10.5525 23.792 10.6825C23.7757 10.78 23.8082 11.0725 23.792 11.3Z" fill="white"/>
</g>
<defs>
<clipPath id="clip0_313_28">
<rect width="33" height="33" fill="white"/>
</clipPath>
</defs>
</svg>
