<svg width="29" height="29" viewBox="0 0 29 29" fill="none" xmlns="http://www.w3.org/2000/svg">
<g clip-path="url(#clip0_348_2)">
<path d="M24.7814 4.16046C23.4444 2.80994 21.8519 1.73914 20.0967 1.01054C18.3415 0.28193 16.4589 -0.0899075 14.5585 -0.0832872C6.596 -0.0832872 0.106413 6.4063 0.106413 14.3688C0.106413 16.9209 0.777246 19.4 2.03141 21.5875L-0.0102539 29.0834L7.646 27.0709C9.76058 28.223 12.1377 28.8355 14.5585 28.8355C22.521 28.8355 29.0106 22.3459 29.0106 14.3834C29.0106 10.5188 27.5085 6.88755 24.7814 4.16046ZM14.5585 26.3855C12.4002 26.3855 10.2856 25.8021 8.4335 24.7084L7.996 24.4459L3.446 25.6417L4.65641 21.2084L4.36475 20.7563C3.16563 18.8415 2.52891 16.6281 2.52725 14.3688C2.52725 7.74796 7.92308 2.35213 14.5439 2.35213C17.7522 2.35213 20.771 3.6063 23.0314 5.8813C24.1507 6.99541 25.0376 8.3206 25.6409 9.78004C26.2442 11.2395 26.5519 12.8042 26.546 14.3834C26.5752 21.0042 21.1793 26.3855 14.5585 26.3855ZM21.1502 17.4021C20.7856 17.2271 19.0064 16.3521 18.6856 16.2209C18.3502 16.1042 18.1168 16.0459 17.8689 16.3959C17.621 16.7605 16.9356 17.5771 16.7314 17.8105C16.5272 18.0584 16.3085 18.0875 15.9439 17.898C15.5793 17.723 14.4127 17.3292 13.0418 16.1042C11.9627 15.1417 11.2481 13.9605 11.0293 13.5959C10.8252 13.2313 11.0002 13.0417 11.1897 12.8521C11.3502 12.6917 11.5543 12.4292 11.7293 12.225C11.9043 12.0209 11.9772 11.8605 12.0939 11.6271C12.2106 11.3792 12.1522 11.175 12.0647 11C11.9772 10.825 11.2481 9.04588 10.9564 8.31671C10.6647 7.61671 10.3585 7.70421 10.1397 7.68963H9.43974C9.19183 7.68963 8.81266 7.77713 8.47725 8.14171C8.15641 8.5063 7.22308 9.3813 7.22308 11.1605C7.22308 12.9396 8.521 14.6605 8.696 14.8938C8.871 15.1417 11.2481 18.7875 14.8647 20.348C15.7252 20.7271 16.396 20.9459 16.921 21.1063C17.7814 21.3834 18.5689 21.3396 19.196 21.2521C19.896 21.15 21.3397 20.3771 21.6314 19.5313C21.9377 18.6855 21.9377 17.9709 21.8356 17.8105C21.7335 17.65 21.5147 17.5771 21.1502 17.4021Z" fill="white"/>
</g>
<defs>
<clipPath id="clip0_348_2">
<rect width="29" height="29" fill="white"/>
</clipPath>
</defs>
</svg>
